<svg width="37" height="38" viewBox="0 0 37 38" fill="none" xmlns="http://www.w3.org/2000/svg">
<path fill-rule="evenodd" clip-rule="evenodd" d="M8.09375 7.125V30.875C8.09375 31.5308 8.61142 32.0625 9.25 32.0625H25.4375C27.3532 32.0625 28.9062 30.4675 28.9062 28.5V9.5C28.9062 7.53249 27.3532 5.9375 25.4375 5.9375L9.25 5.9375C8.61142 5.9375 8.09375 6.46916 8.09375 7.125ZM4.625 30.875C4.625 33.4984 6.69568 35.625 9.25 35.625H25.4375C29.269 35.625 32.375 32.435 32.375 28.5V9.5C32.375 5.56497 29.269 2.375 25.4375 2.375H9.25C6.69568 2.375 4.625 4.50165 4.625 7.125V30.875ZM12.7188 25.5313C12.7188 24.5475 13.4953 23.75 14.4531 23.75H22.5469C23.5047 23.75 24.2812 24.5475 24.2812 25.5313C24.2812 26.515 23.5047 27.3125 22.5469 27.3125H14.4531C13.4953 27.3125 12.7188 26.515 12.7188 25.5313ZM20.8125 15.4375C20.8125 16.7492 19.7772 17.8125 18.5 17.8125C17.2228 17.8125 16.1875 16.7492 16.1875 15.4375C16.1875 14.1258 17.2228 13.0625 18.5 13.0625C19.7772 13.0625 20.8125 14.1258 20.8125 15.4375ZM24.2812 15.4375C24.2812 18.7167 21.6929 21.375 18.5 21.375C15.3071 21.375 12.7188 18.7167 12.7188 15.4375C12.7188 12.1583 15.3071 9.5 18.5 9.5C21.6929 9.5 24.2812 12.1583 24.2812 15.4375Z" fill="#959595"/>
</svg>
