<svg xmlns="http://www.w3.org/2000/svg" width="391" height="48" fill="none"><g clip-path="url(#a)"><g clip-path="url(#b)"><path fill="#C8C9CA" d="M15.4 39.33a2.1 2.1 0 0 1-.77-1.05 2.09 2.09 0 0 1 0-1.3l.44-1.82a2.34 2.34 0 0 1 1.17-1.51l1.45-.76a4.48 4.48 0 0 0 2.32-5.03l-.02-.1a4.57 4.57 0 0 0-1.86-2.68 4.6 4.6 0 0 0-3.2-.72l-1.62.23a2.26 2.26 0 0 1-1.86-.54l-1.43-1.2a2.2 2.2 0 0 1-.76-1.05 2.16 2.16 0 0 1 0-1.3 4.49 4.49 0 0 0-4.56-5.91 4.52 4.52 0 1 0 1.35 8.9l.43-.08a2.3 2.3 0 0 1 1.99.51l1.94 1.68a2.4 2.4 0 0 1 .79 2.12l-.05.3-.05.26v.02a4.55 4.55 0 0 0 .13 1.7v.03c.19.72.55 1.37 1.05 1.91.07.07.12.13.19.18l.21.21c.28.3.48.64.6 1.02.1.38.1.8.01 1.18L12.7 37c-.07.35-.23.67-.46.94-.22.28-.5.5-.83.64l-.37.18a4.36 4.36 0 0 0-2.08 1.67 4.51 4.51 0 0 0 4.52 7.03 4.54 4.54 0 0 0 2.92-1.86c.4-.56.68-1.2.8-1.88.03-.15.05-.3.06-.46l.05-.4a4.56 4.56 0 0 0-1.9-3.54Z"/><path fill="#EC1D35" d="M50.02 17.71a4.48 4.48 0 0 0-3.22-2.98 4.55 4.55 0 0 0-4.58 1.47l-.28.29a2.3 2.3 0 0 1-1.9.76l-2.57-.22a2.34 2.34 0 0 1-1.89-1.26l-.13-.27a2.67 2.67 0 0 0-.13-.23v-.02c-.27-.47-.61-.9-1.03-1.24l-.07-.06-.03-.03a4.5 4.5 0 0 0-1.98-.92h-.02l-.26-.05-.3-.02a2.37 2.37 0 0 1-1.79-1.4l-.99-2.35a2.31 2.31 0 0 1 .12-2.05l.2-.34a4.57 4.57 0 0 0 .7-2.4 4.54 4.54 0 0 0-9.07 0 4.43 4.43 0 0 0 .7 2.4l.18.34a2.3 2.3 0 0 1 .12 2.05l-.98 2.34a2.34 2.34 0 0 1-1.78 1.4l-.3.06-.25.03h-.03c-.54.11-1.04.32-1.5.6l-.07.05a4.54 4.54 0 0 0-1.54 1.63v.01l-.11.23c-1.84 3.93 2.18 6.12 2.68 6.25a4.66 4.66 0 0 0 3.76-.43l.08-.05a4.5 4.5 0 0 0 1.66-5.86l-.74-1.47a2.36 2.36 0 0 1-.07-1.92l.7-1.73a2.1 2.1 0 0 1 2.01-1.44 2.13 2.13 0 0 1 2.01 1.44l.7 1.73c.13.3.2.63.18.96 0 .34-.08.66-.24.96l-.72 1.47a4.5 4.5 0 0 0 1.11 5.43l.07.07a4.48 4.48 0 0 0 4.32.84 4.49 4.49 0 0 0 1.78-1.08l1.17-1.14a2.3 2.3 0 0 1 1.82-.67l1.87.14a2.1 2.1 0 0 1 2 1.46c.29.87 1.01 2.56 3.65 3.07A4.54 4.54 0 0 0 50 17.68l.02.03Z"/><path fill="#402FFF" d="M33.66 24.54a4.7 4.7 0 0 0-2.78 2.54c0 .03-.03.06-.04.1a4.5 4.5 0 0 0 2.12 5.7l1.45.76c.29.15.55.37.76.63.2.26.34.56.43.89l.44 1.82c.13.42.13.87 0 1.29a2.14 2.14 0 0 1-2 1.45c-.45 0-.88-.14-1.25-.4l-1.6-.98a2.32 2.32 0 0 1-1.08-1.58l-.28-1.61a4.57 4.57 0 0 0-1.4-2.59 4.59 4.59 0 0 0-2.7-1.17h-.1a4.54 4.54 0 0 0-4.79 3.77c-.64 3.82 2.8 5.07 4.15 5.23h.12c.74.05 1.47-.1 2.14-.4h.03l.24-.11.26-.14c.36-.18.76-.27 1.16-.25.4.01.78.13 1.13.34l2.19 1.34a2.38 2.38 0 0 1 1.1 1.72l.05.4c0 .15.03.32.05.47a4.58 4.58 0 0 0 2.77 3.42 4.52 4.52 0 0 0 4.37-.53 4.51 4.51 0 0 0-.98-7.86l-.37-.16a2.38 2.38 0 0 1-1.3-1.59l-.6-2.49c-.08-.38-.07-.78.04-1.16.1-.39.3-.74.6-1.02l.2-.22c.06-.05.13-.11.18-.18v-.02c.38-.4.67-.86.87-1.36l.03-.07v-.04c.27-.7.37-1.44.28-2.16v-.03c-.6-4.38-4.92-4.12-5.9-3.75Z"/><path fill="#1B1C21" d="M70.85 40.3v-3.58h-4.38c-1-.02-1.97-.3-2.82-.8-.95-.56-2.62-2.4-3.13-3.13a4.54 4.54 0 0 1-.73-2.64V17.29c-.04-.96.22-1.89.73-2.69.51-.67 2.18-2.52 3.13-3.08.85-.5 1.82-.79 2.82-.8h4.38V7.24h4.76v3.45h4.26c1 .03 1.98.31 2.84.82.94.55 2.57 2.4 3.13 3.07.5.8.76 1.74.72 2.69v12.86c.03.94-.22 1.86-.72 2.65-.56.73-2.2 2.57-3.13 3.11-.86.5-1.84.79-2.84.81h-4.26v3.57l-4.76.01Zm-4.28-8.57h4.28V15.7h-4.23a8.25 8.25 0 0 0-1.59 1.63v12.82c.44.6.96 1.13 1.54 1.58ZM81.34 17.3a5.97 5.97 0 0 0-1.55-1.59H75.6v16.03h4.14c.58-.47 1.11-1 1.59-1.58V17.3ZM109.22 18.4a5.94 5.94 0 0 0-2.27-2.69h-7.61a7.73 7.73 0 0 0-1.69 1.71v12.73c.44.65 1 1.2 1.69 1.58h7.7a7.14 7.14 0 0 0 2.18-2.56l4.88 1.2c-.35.98-.84 1.9-1.45 2.73-1.03 1.45-3.03 3.63-5.66 3.63h-7.87c-1-.03-1.97-.3-2.82-.81-.9-.55-2.54-2.27-3.13-3.07a5.1 5.1 0 0 1-.74-2.65V17.24c-.04-.94.22-1.87.74-2.65.5-.67 2.18-2.48 3.16-3.07.86-.49 1.81-.77 2.79-.82h7.87c2.62 0 4.6 2.19 5.62 3.6.6.83 1.1 1.74 1.46 2.71l-4.85 1.39ZM135.35 36.51V15.87h-10.83v20.64h-5.23v-24.2a1.43 1.43 0 0 1 1.44-1.42h18.42c.38 0 .74.15 1.01.42s.41.63.42 1v24.22l-5.23-.02Z"/></g><path fill="#1B1C21" fill-rule="evenodd" d="M155.2 22.58v-3.15a3.79 3.79 0 0 1-2.66-.95 4.77 4.77 0 0 1-.34-.4 3.74 3.74 0 0 1-.62-2.21V13.3c0-.86.2-1.58.61-2.16a3.34 3.34 0 0 1 .7-.7 3.86 3.86 0 0 1 2.3-.66V6.64h1.5v3.15a3.79 3.79 0 0 1 2.65.95c.13.12.25.26.35.4.4.59.61 1.3.61 2.17v2.56c0 1.1-.32 1.97-.96 2.6l-.29.26c-.61.46-1.4.7-2.36.7v3.15h-1.5Zm11.24-2.98a4.4 4.4 0 0 1-2.03-.45 3.46 3.46 0 0 1-1.8-3.26V13.3c0-.73.16-1.37.47-1.92.32-.56.76-1 1.33-1.3a4.24 4.24 0 0 1 2.03-.47c.78 0 1.45.16 2.02.47a3.27 3.27 0 0 1 1.35 1.3c.32.54.47 1.18.47 1.92v1.72h-5.97v.86c0 .75.18 1.3.54 1.7.37.38.91.58 1.6.58.58 0 1.05-.1 1.4-.3.35-.21.57-.52.66-.93h1.72a2.72 2.72 0 0 1-1.23 1.94c-.69.48-1.54.72-2.56.72Zm21.01 0a4.4 4.4 0 0 1-2.03-.45 3.46 3.46 0 0 1-1.8-3.26V13.3c0-.73.16-1.37.47-1.92.32-.56.76-1 1.33-1.3a4.24 4.24 0 0 1 2.03-.47c.78 0 1.45.16 2.02.47.58.3 1.03.74 1.35 1.3.31.55.47 1.19.47 1.92v1.72h-5.97v.86c0 .75.18 1.3.54 1.7.37.38.91.58 1.6.58.58 0 1.05-.1 1.4-.3.16-.1.3-.22.4-.35.13-.17.22-.36.26-.58h1.72a2.72 2.72 0 0 1-1.23 1.94c-.69.48-1.54.72-2.56.72Zm6.81 2.98V9.78h1.72v1.82h.02c.08-.42.24-.78.47-1.08.1-.14.24-.27.4-.38a2.83 2.83 0 0 1 1.75-.52c.96 0 1.73.33 2.32.98.58.64.87 1.52.87 2.63v2.75c0 1.12-.29 2-.87 2.66-.58.64-1.35.96-2.32.96a2.87 2.87 0 0 1-1.75-.52 2.35 2.35 0 0 1-.87-1.47h-.04l.04 2.19v2.78h-1.74Zm13.31-2.98a3.46 3.46 0 0 1-2.4-.77 2.74 2.74 0 0 1-.86-2.12c0-.91.3-1.62.9-2.13a3.65 3.65 0 0 1 2.46-.8h2.81v-.9c0-.56-.18-1-.53-1.3a2.03 2.03 0 0 0-1.42-.47 2.4 2.4 0 0 0-1.38.37 1.49 1.49 0 0 0-.67.92h-1.7c.05-.56.24-1.04.58-1.45a3.4 3.4 0 0 1 1.33-.98 4.78 4.78 0 0 1 1.86-.35 3.94 3.94 0 0 1 2.66.87c.67.58 1 1.35 1 2.33v6.6h-1.7v-1.78a2 2 0 0 1-.93 1.44c-.52.35-1.19.52-2 .52Zm53.5 0a4 4 0 0 1-2.85-.98 3.55 3.55 0 0 1-1.07-2.73V13.3c0-1.14.36-2.04 1.07-2.7.71-.66 1.66-1 2.84-1 1.13 0 2.04.3 2.73.92.7.6 1.05 1.4 1.1 2.45h-1.73a1.87 1.87 0 0 0-.6-1.35 2.23 2.23 0 0 0-1.5-.5c-.67 0-1.2.2-1.6.59-.38.37-.58.9-.58 1.59v2.58c0 .7.2 1.24.58 1.6.4.38.93.57 1.6.57.62 0 1.11-.16 1.5-.47.36-.32.56-.77.6-1.35h1.72a3.3 3.3 0 0 1-1.09 2.47c-.69.59-1.6.89-2.73.89Zm27.73 2.98V9.78h1.72v1.82h.02c.11-.62.4-1.11.86-1.46a2.84 2.84 0 0 1 1.77-.52c.95 0 1.72.33 2.31.98l.12.14c.5.62.75 1.45.75 2.49v2.75c0 1.04-.25 1.89-.76 2.53l-.1.13c-.58.64-1.35.96-2.32.96-.7 0-1.29-.17-1.76-.52a2.35 2.35 0 0 1-.87-1.47h-.04l.04 2.19v2.78h-1.74Zm-6.8-3.01a3.94 3.94 0 0 1-2.8-.98 3.6 3.6 0 0 1-1.04-2.72v-2.52c0-1.14.34-2.04 1.03-2.7a3.9 3.9 0 0 1 2.81-1c1.18 0 2.11.34 2.8 1a3.53 3.53 0 0 1 1.03 2.68v2.54a3.6 3.6 0 0 1-1.03 2.72c-.69.65-1.62.98-2.8.98Zm63.02 0a4.05 4.05 0 0 1-2.8-.98 3.6 3.6 0 0 1-1.03-2.72v-2.52a3.56 3.56 0 0 1 1.36-2.98 4.06 4.06 0 0 1 2.47-.72 3.9 3.9 0 0 1 2.81 1c.16.15.3.31.42.49.4.58.61 1.31.61 2.19v2.54a3.81 3.81 0 0 1-1.03 2.72c-.69.65-1.63.98-2.8.98Zm21.01 0a3.91 3.91 0 0 1-2.8-.98 3.6 3.6 0 0 1-1.03-2.72v-2.52c0-1.14.34-2.04 1.03-2.7.7-.66 1.62-1 2.8-1a3.9 3.9 0 0 1 2.81 1 3.56 3.56 0 0 1 1.03 2.68v2.54c0 1.15-.35 2.05-1.03 2.72-.69.65-1.63.98-2.8.98Zm-193.83 2.3v-3.93h.76c.18-.2.38-.58.6-1.14.21-.57.34-1.3.36-2.17l.1-4.84h6.4v8.15h1.21v3.94h-1.56v-2.45h-6.3v2.45h-1.57Zm49.9 0v-2.44h-6.85V9.79H217v8.08h3.61V9.79h1.73v8.08h1.32v4h-1.56Zm3.66-2.44V9.79h1.63v5.12a30.72 30.72 0 0 1-.21 3.08l3.82-8.2h2.2v9.64h-1.64V14.3l.03-1.06.07-1.08.11-.9-3.82 8.17h-2.19Zm10.07 0 2.38-3.66a2.9 2.9 0 0 1-1.63-1.04c-.4-.52-.6-1.14-.6-1.85 0-.95.32-1.7.95-2.25a3.86 3.86 0 0 1 2.63-.84h4.13v9.64h-1.73v-3.54h-1.98l-2.16 3.54h-1.99Zm31.95 0V9.79h7.43v9.64h-1.74v-8.06h-3.96v8.06h-1.73Zm34.37 0v-8.1h-3.46V9.8h8.64v1.55h-3.45v8.09h-1.73Zm7.65 0V9.79h1.62v5.12a20.6 20.6 0 0 1-.12 2.19l-.09.89 3.82-8.2h2.2v9.64h-1.64V14.3c0-.33.02-.68.04-1.06l.07-1.08.1-.9-3.82 8.17h-2.18Zm10.5 0V9.79h4.2c.97 0 1.74.23 2.32.67.58.44.87 1.04.87 1.79 0 .58-.18 1.05-.56 1.4-.37.38-.88.57-1.52.59v.07a2.49 2.49 0 0 1 2.07 1.07c.24.37.35.81.35 1.33 0 .83-.3 1.49-.92 1.98a3.8 3.8 0 0 1-2.47.74h-4.34Zm10.5 0V9.79h1.74v3.9h3.96V9.8h1.73v9.64h-1.73v-4.15h-3.96v4.15h-1.74Zm21.71 0V9.79h7v1.6h-5.26v8.04h-1.74Zm-188.2-6.12v.48h4.3v-.48c0-.73-.2-1.3-.57-1.68l-.15-.14c-.35-.3-.83-.45-1.45-.45-.7 0-1.23.2-1.59.59-.36.38-.54.94-.54 1.68Zm21.01 0v.48h4.3v-.48c0-.73-.2-1.3-.57-1.68-.36-.4-.9-.6-1.6-.6a2.15 2.15 0 0 0-1.59.6c-.36.38-.54.94-.54 1.68Zm12.71 4.79c.64 0 1.14-.2 1.51-.56.36-.4.54-.94.54-1.65V13.3c0-.7-.18-1.23-.54-1.61a2.1 2.1 0 0 0-1.51-.57 1.96 1.96 0 0 0-1.53.62c-.33.38-.5.9-.5 1.58v2.56c0 .7.18 1.24.54 1.63.36.38.86.58 1.5.58Zm94.54 0a2.04 2.04 0 0 0 1.53-.6c.35-.38.52-.92.52-1.61V13.3a2.24 2.24 0 0 0-.54-1.61 2 2 0 0 0-1.5-.57c-.64 0-1.14.19-1.5.57a2.3 2.3 0 0 0-.54 1.63v2.56c0 .7.18 1.24.54 1.63.36.38.86.58 1.5.58Zm-137.33-.04v-6.9c-.53 0-.97.13-1.3.39-.08.05-.15.11-.22.19a.52.52 0 0 0-.09.09c-.3.36-.46.86-.46 1.48v2.56c0 .69.18 1.23.55 1.6.36.4.87.59 1.52.59Zm1.4 0a2 2 0 0 0 1.6-.65c.31-.38.47-.9.47-1.54V13.3a2.24 2.24 0 0 0-.54-1.57 2 2 0 0 0-1.53-.58v6.9ZM282 18.04c.65 0 1.16-.18 1.54-.54.37-.37.56-.92.56-1.63v-2.52c0-.71-.19-1.25-.56-1.61a2.07 2.07 0 0 0-1.54-.56c-.66 0-1.17.18-1.55.56-.37.36-.56.9-.56 1.6v2.53c0 .7.2 1.26.56 1.63.38.36.9.54 1.55.54Zm63.02 0c.66 0 1.17-.18 1.54-.54.38-.37.57-.92.57-1.63v-2.52c0-.71-.19-1.25-.57-1.61-.37-.38-.88-.56-1.54-.56-.65 0-1.16.18-1.54.56-.37.36-.56.9-.56 1.6v2.53c0 .7.2 1.26.56 1.63.38.36.9.54 1.54.54Zm21.01 0c.66 0 1.17-.18 1.54-.54.38-.37.56-.92.56-1.63v-2.52c0-.71-.18-1.25-.56-1.61-.37-.38-.88-.56-1.54-.56a2.05 2.05 0 0 0-1.59.6c-.34.37-.5.89-.5 1.57v2.52c0 .7.18 1.26.55 1.63.37.36.9.54 1.54.54ZM322 13.8h2.47c.48 0 .85-.11 1.12-.33.27-.23.4-.55.4-.96 0-.4-.13-.71-.4-.93a1.72 1.72 0 0 0-1.12-.33H322v2.55Zm-82.43.64h2.4v-3.16h-2.4c-.56 0-1 .15-1.34.44-.33.28-.5.67-.5 1.16 0 .48.17.85.5 1.14.33.28.78.42 1.34.42Zm-64.8 3.5h3.95v-6.62h-3.07l-.07 3.34a7.9 7.9 0 0 1-.3 2.18c-.19.56-.36.92-.52 1.1Zm33.27.3c.7 0 1.28-.16 1.74-.51.46-.36.7-.82.7-1.4v-1.3h-2.77a1.77 1.77 0 0 0-1.23.42 1.5 1.5 0 0 0-.43 1.14c0 .53.17.93.52 1.23.35.29.84.43 1.47.43ZM322 17.98h2.61c.54 0 .95-.12 1.24-.36.31-.26.46-.61.46-1.06 0-.44-.15-.78-.46-1.03-.29-.26-.7-.38-1.24-.38h-2.6v2.83Zm8.8 19.79v-12.8h4.16c.81 0 1.52.17 2.12.49a3.4 3.4 0 0 1 1.38 1.33c.33.56.5 1.23.5 2a4 4 0 0 1-.5 2.03c-.33.56-.79.99-1.4 1.3-.6.33-1.3.48-2.1.48h-2.42v5.17h-1.74Zm1.74-6.71h2.42c.67 0 1.21-.2 1.61-.61.4-.42.6-.97.6-1.65 0-.7-.2-1.24-.6-1.64-.4-.42-.94-.64-1.6-.64h-2.43v4.54ZM162.75 40.9V28.13h1.72v1.8h.01a2.32 2.32 0 0 1 .92-1.5 2.92 2.92 0 0 1 1.71-.48c.96 0 1.73.33 2.31.98.6.64.88 1.52.88 2.63v2.75c0 1.12-.29 2-.88 2.66-.18.2-.4.38-.62.53-.47.29-1.03.44-1.69.44a2.87 2.87 0 0 1-1.75-.53 2.34 2.34 0 0 1-.88-1.47h-.03l.03 2.19v2.78h-1.73Zm31.51 0V28.13h1.72v1.8h.02c.11-.62.4-1.1.86-1.45a2.83 2.83 0 0 1 1.76-.53c.96 0 1.73.33 2.32.98.58.64.87 1.52.87 2.63v2.75c0 1.12-.29 2-.87 2.66-.58.64-1.35.97-2.32.97a2.87 2.87 0 0 1-1.75-.53 2.32 2.32 0 0 1-.87-1.47h-.04l.04 2.19v2.78h-1.74Zm13.31-2.97a3.47 3.47 0 0 1-2.4-.78 2.73 2.73 0 0 1-.86-2.11c0-.92.3-1.63.9-2.14a3.65 3.65 0 0 1 2.46-.8h2.81v-.9c0-.56-.18-1-.53-1.3a2.03 2.03 0 0 0-1.42-.47 2.4 2.4 0 0 0-1.38.37c-.36.23-.58.54-.67.93h-1.7a2.6 2.6 0 0 1 .58-1.46 3.5 3.5 0 0 1 1.33-.98 4.78 4.78 0 0 1 1.86-.35c1.12 0 2.01.29 2.66.88.67.57 1 1.35 1 2.33v6.6h-1.7v-1.8a2 2 0 0 1-.93 1.45c-.52.35-1.19.53-2 .53Zm39.22 2.97V28.13h1.71v1.8h.02a2.28 2.28 0 0 1 .92-1.5 2.92 2.92 0 0 1 1.71-.48c.96 0 1.73.33 2.31.98.58.64.88 1.52.88 2.63v2.75c0 1.12-.3 2-.88 2.66-.57.64-1.34.97-2.3.97-.7 0-1.3-.18-1.76-.53a2.34 2.34 0 0 1-.88-1.47h-.04l.04 2.19v2.78h-1.73Zm34.31-2.97a3.5 3.5 0 0 1-2.4-.78 2.73 2.73 0 0 1-.86-2.11c0-.92.3-1.63.9-2.14.6-.53 1.43-.8 2.47-.8h2.8v-.9c0-.56-.18-1-.53-1.3a2 2 0 0 0-1.4-.47c-.56 0-1.03.12-1.4.37-.36.23-.58.54-.66.93h-1.7c.04-.56.23-1.05.57-1.46.34-.42.8-.74 1.34-.98a4.7 4.7 0 0 1 1.85-.35c1.12 0 2.01.29 2.67.88.66.57 1 1.35 1 2.33v6.6h-1.7v-1.8h-.02a1.99 1.99 0 0 1-.9 1.45c-.54.35-1.2.53-2.03.53Zm74.5 0a4.01 4.01 0 0 1-2.84-1 3.55 3.55 0 0 1-1.07-2.72v-2.57a3.48 3.48 0 0 1 1.45-3.01 4.17 4.17 0 0 1 2.46-.7c1.13 0 2.04.3 2.73.92.7.6 1.05 1.4 1.1 2.45h-1.73a1.79 1.79 0 0 0-.6-1.34 2.18 2.18 0 0 0-1.5-.5c-.67 0-1.2.2-1.6.58-.38.38-.57.9-.57 1.6v2.57c0 .7.2 1.24.57 1.6.4.39.93.57 1.6.57.62 0 1.11-.15 1.5-.47.36-.31.57-.76.6-1.35h1.72a3.3 3.3 0 0 1-1.09 2.47c-.69.6-1.6.9-2.73.9Zm10.5 0a4.03 4.03 0 0 1-2.84-1 3.54 3.54 0 0 1-1.06-2.72v-2.57c0-1.15.35-2.05 1.06-2.7.72-.67 1.66-1 2.84-1a4 4 0 0 1 2.74.9c.68.6 1.05 1.42 1.08 2.46h-1.72a1.79 1.79 0 0 0-.6-1.34 2.16 2.16 0 0 0-1.5-.5c-.66 0-1.19.2-1.59.58-.39.38-.58.9-.58 1.6v2.57c0 .7.2 1.24.58 1.6.4.39.93.57 1.6.57a2.2 2.2 0 0 0 1.48-.47c.37-.31.58-.76.61-1.35h1.72a3.3 3.3 0 0 1-1.08 2.47c-.69.6-1.6.9-2.74.9Zm-189.15-.04a3.91 3.91 0 0 1-2.8-.98 3.6 3.6 0 0 1-1.04-2.72v-2.52c0-1.14.35-2.04 1.04-2.7a3.88 3.88 0 0 1 2.8-1c1.18 0 2.11.34 2.8 1a3.53 3.53 0 0 1 1.04 2.68v2.54a3.6 3.6 0 0 1-1.04 2.72c-.69.65-1.62.98-2.8.98Zm84.04 0a3.94 3.94 0 0 1-2.8-.98 3.6 3.6 0 0 1-1.04-2.72v-2.52c0-1.14.34-2.04 1.03-2.7a3.9 3.9 0 0 1 2.81-1c1.18 0 2.11.34 2.8 1a3.53 3.53 0 0 1 1.03 2.68v2.54a3.6 3.6 0 0 1-1.03 2.72c-.69.65-1.62.98-2.8.98Zm84.03 0a3.91 3.91 0 0 1-2.8-.98 3.6 3.6 0 0 1-1.03-2.72v-2.52c0-1.14.34-2.04 1.03-2.7a3.88 3.88 0 0 1 2.8-1 3.9 3.9 0 0 1 2.81 1c.16.15.3.31.42.49.4.59.61 1.32.61 2.19v2.54a3.6 3.6 0 0 1-1.03 2.72c-.69.65-1.63.98-2.8.98Zm-192.79-.14v-9.63h7.42v9.63h-1.73V29.7h-3.96v8.06h-1.73Zm32.21 0v-9.63h7v1.59h-5.26v8.04h-1.74Zm30.52 0v-9.63h2.26l1.24 3.67c.13.39.24.76.33 1.13l.23.82a22.28 22.28 0 0 1 .53-1.96l1.17-3.66h2.26v9.63h-1.65v-1.52l.02-1.72.07-2 .1-1.91c.01-.6.03-1.12.06-1.56l-1.74 5.84h-1.7l-1.76-5.75.07 1.46.07 1.85a130.8 130.8 0 0 1 .08 3.79v1.52h-1.64Zm10.5 0v-9.63h2.26l1.24 3.67c.13.39.24.76.34 1.13l.23.82a14.29 14.29 0 0 1 .52-1.96l1.17-3.66h2.26v9.63h-1.64v-1.52c0-.51 0-1.08.02-1.72l.07-2 .08-1.91.07-1.56-1.73 5.84h-1.7l-1.77-5.75.07 1.46.07 1.85a130.8 130.8 0 0 1 .1 3.79v1.52h-1.66Zm10.8 0v-9.63h1.63v5.1a21.27 21.27 0 0 1-.12 2.2l-.09.89 3.82-8.2h2.2v9.64h-1.64v-5.13a30.13 30.13 0 0 1 .11-2.14l.1-.9-3.82 8.17h-2.19Zm31.52 0v-9.63h4.18c.98 0 1.76.22 2.33.66.6.45.88 1.04.88 1.79a1.9 1.9 0 0 1-.56 1.42c-.37.36-.88.55-1.53.58v.07a2.5 2.5 0 0 1 1.76.68c.12.12.23.25.31.39.24.36.35.8.35 1.33 0 .82-.3 1.48-.9 1.97-.62.49-1.44.74-2.48.74h-4.34Zm21.01 0v-9.63h1.73v3.9h3.96v-3.9h1.73v9.63h-1.73V33.6h-3.96v4.15h-1.73Zm10.5 0v-9.63h1.63v5.1c0 .35 0 .7-.04 1.1a37.9 37.9 0 0 1-.17 1.99l3.82-8.2h2.2v9.64h-1.64v-5.13l.03-1.05.07-1.1.11-.88-3.82 8.16h-2.19Zm10.07 0 2.38-3.66a2.94 2.94 0 0 1-1.63-1.03 3 3 0 0 1-.6-1.86c0-.95.32-1.7.95-2.24a3.86 3.86 0 0 1 2.63-.84h4.13v9.63h-1.73v-3.54h-1.98l-2.16 3.54h-1.99Zm63.46 0v-9.63h1.63v5.1c0 .35 0 .7-.03 1.1l-.09 1.1-.09.89 3.82-8.2h2.2v9.64h-1.64v-5.13a30.13 30.13 0 0 1 .11-2.14l.1-.9-3.82 8.17h-2.19Zm10.51 0v-9.63h1.63v5.1c0 .35-.02.7-.04 1.1-.02.37-.05.74-.09 1.1l-.08.89 3.82-8.2h2.2v9.64h-1.64v-5.13l.03-1.05.07-1.1.11-.88-3.82 8.16h-2.19Zm-216.8-1.33a2 2 0 0 0 1.5-.56c.35-.4.54-.94.54-1.65v-2.57c0-.68-.17-1.2-.5-1.57l-.05-.04a1.97 1.97 0 0 0-.24-.22 2.1 2.1 0 0 0-1.26-.36c-.64 0-1.13.19-1.49.58-.37.38-.55.92-.55 1.62v2.56c0 .7.18 1.25.55 1.63.36.39.85.58 1.5.58Zm31.5 0c.64 0 1.14-.2 1.51-.56.36-.4.54-.94.54-1.65v-2.57c0-.7-.18-1.24-.54-1.61a2.64 2.64 0 0 0-.25-.22 2.1 2.1 0 0 0-1.26-.36c-.63 0-1.13.19-1.49.58-.36.38-.54.92-.54 1.62v2.56c0 .7.18 1.25.54 1.63.36.39.86.58 1.5.58Zm52.52 0c.64 0 1.15-.2 1.51-.56.36-.4.54-.94.54-1.65v-2.57c0-.7-.18-1.24-.54-1.61a1.96 1.96 0 0 0-1.5-.58c-.64 0-1.14.19-1.5.58-.36.38-.54.92-.54 1.62v2.56c0 .7.18 1.25.54 1.63.36.39.86.58 1.5.58Zm-73.6-.05c.65 0 1.17-.18 1.54-.55.37-.37.56-.91.56-1.63v-2.52c0-.71-.19-1.25-.56-1.61a2.1 2.1 0 0 0-1.54-.56 2.1 2.1 0 0 0-1.54.56c-.38.36-.56.9-.56 1.6v2.53c0 .72.18 1.26.56 1.63.37.37.9.55 1.54.55Zm84.04 0a2.1 2.1 0 0 0 1.54-.55c.37-.37.56-.91.56-1.63v-2.52c0-.71-.19-1.25-.56-1.61a2.11 2.11 0 0 0-1.54-.56c-.66 0-1.17.19-1.55.56-.37.36-.56.9-.56 1.6v2.53c0 .72.2 1.26.56 1.63.38.37.9.55 1.55.55Zm84.03 0c.66 0 1.17-.18 1.54-.55.38-.37.57-.91.57-1.63v-2.52c0-.71-.19-1.25-.57-1.61a2.08 2.08 0 0 0-1.54-.56c-.65 0-1.16.19-1.54.56-.37.36-.56.9-.56 1.6v2.53c0 .72.2 1.26.56 1.63.38.37.9.55 1.54.55Zm-75.54-4.24h2.47c.48 0 .85-.11 1.12-.34.27-.23.4-.55.4-.96 0-.4-.13-.71-.4-.93a1.74 1.74 0 0 0-1.12-.33h-2.47v2.56Zm43.63.63h2.38v-3.15h-2.38a2 2 0 0 0-1.35.43c-.33.28-.49.67-.49 1.16 0 .48.16.86.5 1.14.33.28.78.42 1.34.42Zm-105.07 3.82c.7 0 1.28-.18 1.74-.53.46-.36.7-.82.7-1.38v-1.32h-2.77c-.5 0-.92.14-1.23.42a1.5 1.5 0 0 0-.43 1.14c0 .53.17.94.52 1.23.35.29.84.44 1.47.44Zm73.54 0c.7 0 1.27-.18 1.73-.53.27-.21.46-.45.57-.71.09-.21.13-.43.13-.67v-1.32h-2.77c-.5 0-.92.14-1.22.42-.3.28-.44.66-.44 1.14 0 .53.17.94.52 1.23.35.29.84.44 1.48.44Zm-12.1-.28h2.61c.53 0 .95-.13 1.24-.37.3-.26.46-.61.46-1.05a1.32 1.32 0 0 0-.46-1.04c-.3-.26-.7-.38-1.24-.38h-2.6v2.84Z" clip-rule="evenodd"/></g><defs><clipPath id="a"><path fill="#fff" d="M.42 0h390.35v47.54H.42z"/></clipPath><clipPath id="b"><path fill="#fff" d="M.42 0h140.17v47.54H.42z"/></clipPath></defs></svg>