<svg width="145" height="50" xmlns="http://www.w3.org/2000/svg" xmlns:svg="http://www.w3.org/2000/svg" xmlns:xlink="http://www.w3.org/1999/xlink">
 <title>12</title>
 <defs>
  <clipPath id="a">
   <path d="m0.42,0l390.35,0l0,47.54l-390.35,0l0,-47.54z" fill="#fff" id="svg_1"/>
  </clipPath>
  <clipPath id="b">
   <path d="m2.24,-1.82l140.17,0l0,47.54l-140.17,0l0,-47.54z" fill="#fff" id="svg_2"/>
  </clipPath>
  <symbol height="48" id="svg_5" width="391" xmlns="http://www.w3.org/2000/svg">
   <g clip-path="url(#svg_4)">
    <g clip-path="url(#svg_3)">
     <path d="m15.4,39.33a2.1,2.1 0 0 1 -0.77,-1.05a2.09,2.09 0 0 1 0,-1.3l0.44,-1.82a2.34,2.34 0 0 1 1.17,-1.51l1.45,-0.76a4.48,4.48 0 0 0 2.32,-5.03l-0.02,-0.1a4.57,4.57 0 0 0 -1.86,-2.68a4.6,4.6 0 0 0 -3.2,-0.72l-1.62,0.23a2.26,2.26 0 0 1 -1.86,-0.54l-1.43,-1.2a2.2,2.2 0 0 1 -0.76,-1.05a2.16,2.16 0 0 1 0,-1.3a4.49,4.49 0 0 0 -4.56,-5.91a4.52,4.52 0 1 0 1.35,8.9l0.43,-0.08a2.3,2.3 0 0 1 1.99,0.51l1.94,1.68a2.4,2.4 0 0 1 0.79,2.12l-0.05,0.3l-0.05,0.26l0,0.02a4.55,4.55 0 0 0 0.13,1.7l0,0.03c0.19,0.72 0.55,1.37 1.05,1.91c0.07,0.07 0.12,0.13 0.19,0.18l0.21,0.21c0.28,0.3 0.48,0.64 0.6,1.02c0.1,0.38 0.1,0.8 0.01,1.18l-0.59,2.47c-0.07,0.35 -0.23,0.67 -0.46,0.94c-0.22,0.28 -0.5,0.5 -0.83,0.64l-0.37,0.18a4.36,4.36 0 0 0 -2.08,1.67a4.51,4.51 0 0 0 4.52,7.03a4.54,4.54 0 0 0 2.92,-1.86c0.4,-0.56 0.68,-1.2 0.8,-1.88c0.03,-0.15 0.05,-0.3 0.06,-0.46l0.05,-0.4a4.56,4.56 0 0 0 -1.9,-3.54l-0.01,0.01z" fill="#C8C9CA"/>
     <path d="m50.02,17.71a4.48,4.48 0 0 0 -3.22,-2.98a4.55,4.55 0 0 0 -4.58,1.47l-0.28,0.29a2.3,2.3 0 0 1 -1.9,0.76l-2.57,-0.22a2.34,2.34 0 0 1 -1.89,-1.26l-0.13,-0.27a2.67,2.67 0 0 0 -0.13,-0.23l0,-0.02c-0.27,-0.47 -0.61,-0.9 -1.03,-1.24l-0.07,-0.06l-0.03,-0.03a4.5,4.5 0 0 0 -1.98,-0.92l-0.02,0l-0.26,-0.05l-0.3,-0.02a2.37,2.37 0 0 1 -1.79,-1.4l-0.99,-2.35a2.31,2.31 0 0 1 0.12,-2.05l0.2,-0.34a4.57,4.57 0 0 0 0.7,-2.4a4.54,4.54 0 0 0 -9.07,0a4.43,4.43 0 0 0 0.7,2.4l0.18,0.34a2.3,2.3 0 0 1 0.12,2.05l-0.98,2.34a2.34,2.34 0 0 1 -1.78,1.4l-0.3,0.06l-0.25,0.03l-0.03,0c-0.54,0.11 -1.04,0.32 -1.5,0.6l-0.07,0.05a4.54,4.54 0 0 0 -1.54,1.63l0,0.01l-0.11,0.23c-1.84,3.93 2.18,6.12 2.68,6.25a4.66,4.66 0 0 0 3.76,-0.43l0.08,-0.05a4.5,4.5 0 0 0 1.66,-5.86l-0.74,-1.47a2.36,2.36 0 0 1 -0.07,-1.92l0.7,-1.73a2.1,2.1 0 0 1 2.01,-1.44a2.13,2.13 0 0 1 2.01,1.44l0.7,1.73c0.13,0.3 0.2,0.63 0.18,0.96c0,0.34 -0.08,0.66 -0.24,0.96l-0.72,1.47a4.5,4.5 0 0 0 1.11,5.43l0.07,0.07a4.48,4.48 0 0 0 4.32,0.84a4.49,4.49 0 0 0 1.78,-1.08l1.17,-1.14a2.3,2.3 0 0 1 1.82,-0.67l1.87,0.14a2.1,2.1 0 0 1 2,1.46c0.29,0.87 1.01,2.56 3.65,3.07a4.54,4.54 0 0 0 4.96,-5.88l0.02,0.03z" fill="#EC1D35"/>
     <path d="m33.66,24.54a4.7,4.7 0 0 0 -2.78,2.54c0,0.03 -0.03,0.06 -0.04,0.1a4.5,4.5 0 0 0 2.12,5.7l1.45,0.76c0.29,0.15 0.55,0.37 0.76,0.63c0.2,0.26 0.34,0.56 0.43,0.89l0.44,1.82c0.13,0.42 0.13,0.87 0,1.29a2.14,2.14 0 0 1 -2,1.45c-0.45,0 -0.88,-0.14 -1.25,-0.4l-1.6,-0.98a2.32,2.32 0 0 1 -1.08,-1.58l-0.28,-1.61a4.57,4.57 0 0 0 -1.4,-2.59a4.59,4.59 0 0 0 -2.7,-1.17l-0.1,0a4.54,4.54 0 0 0 -4.79,3.77c-0.64,3.82 2.8,5.07 4.15,5.23l0.12,0c0.74,0.05 1.47,-0.1 2.14,-0.4l0.03,0l0.24,-0.11l0.26,-0.14c0.36,-0.18 0.76,-0.27 1.16,-0.25c0.4,0.01 0.78,0.13 1.13,0.34l2.19,1.34a2.38,2.38 0 0 1 1.1,1.72l0.05,0.4c0,0.15 0.03,0.32 0.05,0.47a4.58,4.58 0 0 0 2.77,3.42a4.52,4.52 0 0 0 4.37,-0.53a4.51,4.51 0 0 0 -0.98,-7.86l-0.37,-0.16a2.38,2.38 0 0 1 -1.3,-1.59l-0.6,-2.49c-0.08,-0.38 -0.07,-0.78 0.04,-1.16c0.1,-0.39 0.3,-0.74 0.6,-1.02l0.2,-0.22c0.06,-0.05 0.13,-0.11 0.18,-0.18l0,-0.02c0.38,-0.4 0.67,-0.86 0.87,-1.36l0.03,-0.07l0,-0.04c0.27,-0.7 0.37,-1.44 0.28,-2.16l0,-0.03c-0.6,-4.38 -4.92,-4.12 -5.9,-3.75l0.01,0z" fill="#402FFF"/>
     <path d="m70.85,40.3l0,-3.58l-4.38,0c-1,-0.02 -1.97,-0.3 -2.82,-0.8c-0.95,-0.56 -2.62,-2.4 -3.13,-3.13a4.54,4.54 0 0 1 -0.73,-2.64l0,-12.86c-0.04,-0.96 0.22,-1.89 0.73,-2.69c0.51,-0.67 2.18,-2.52 3.13,-3.08c0.85,-0.5 1.82,-0.79 2.82,-0.8l4.38,0l0,-3.48l4.76,0l0,3.45l4.26,0c1,0.03 1.98,0.31 2.84,0.82c0.94,0.55 2.57,2.4 3.13,3.07c0.5,0.8 0.76,1.74 0.72,2.69l0,12.86c0.03,0.94 -0.22,1.86 -0.72,2.65c-0.56,0.73 -2.2,2.57 -3.13,3.11c-0.86,0.5 -1.84,0.79 -2.84,0.81l-4.26,0l0,3.57l-4.76,0.01l0,0.02zm-4.28,-8.57l4.28,0l0,-16.03l-4.23,0a8.25,8.25 0 0 0 -1.59,1.63l0,12.82c0.44,0.6 0.96,1.13 1.54,1.58zm14.77,-14.43a5.97,5.97 0 0 0 -1.55,-1.59l-4.19,0l0,16.03l4.14,0c0.58,-0.47 1.11,-1 1.59,-1.58l0,-12.86l0.01,0zm27.88,1.1a5.94,5.94 0 0 0 -2.27,-2.69l-7.61,0a7.73,7.73 0 0 0 -1.69,1.71l0,12.73c0.44,0.65 1,1.2 1.69,1.58l7.7,0a7.14,7.14 0 0 0 2.18,-2.56l4.88,1.2c-0.35,0.98 -0.84,1.9 -1.45,2.73c-1.03,1.45 -3.03,3.63 -5.66,3.63l-7.87,0c-1,-0.03 -1.97,-0.3 -2.82,-0.81c-0.9,-0.55 -2.54,-2.27 -3.13,-3.07a5.1,5.1 0 0 1 -0.74,-2.65l0,-12.96c-0.04,-0.94 0.22,-1.87 0.74,-2.65c0.5,-0.67 2.18,-2.48 3.16,-3.07c0.86,-0.49 1.81,-0.77 2.79,-0.82l7.87,0c2.62,0 4.6,2.19 5.62,3.6c0.6,0.83 1.1,1.74 1.46,2.71l-4.85,1.39zm26.13,18.11l0,-20.64l-10.83,0l0,20.64l-5.23,0l0,-24.2a1.43,1.43 0 0 1 1.44,-1.42l18.42,0c0.38,0 0.74,0.15 1.01,0.42s0.41,0.63 0.42,1l0,24.22l-5.23,-0.02z" fill="#1B1C21"/>
    </g>
    <path clip-rule="evenodd" d="m155.2,22.58l0,-3.15a3.79,3.79 0 0 1 -2.66,-0.95a4.77,4.77 0 0 1 -0.34,-0.4a3.74,3.74 0 0 1 -0.62,-2.21l0,-2.57c0,-0.86 0.2,-1.58 0.61,-2.16a3.34,3.34 0 0 1 0.7,-0.7a3.86,3.86 0 0 1 2.3,-0.66l0,-3.14l1.5,0l0,3.15a3.79,3.79 0 0 1 2.65,0.95c0.13,0.12 0.25,0.26 0.35,0.4c0.4,0.59 0.61,1.3 0.61,2.17l0,2.56c0,1.1 -0.32,1.97 -0.96,2.6l-0.29,0.26c-0.61,0.46 -1.4,0.7 -2.36,0.7l0,3.15l-1.5,0l0.01,0zm11.24,-2.98a4.4,4.4 0 0 1 -2.03,-0.45a3.46,3.46 0 0 1 -1.8,-3.26l0,-2.59c0,-0.73 0.16,-1.37 0.47,-1.92c0.32,-0.56 0.76,-1 1.33,-1.3a4.24,4.24 0 0 1 2.03,-0.47c0.78,0 1.45,0.16 2.02,0.47a3.27,3.27 0 0 1 1.35,1.3c0.32,0.54 0.47,1.18 0.47,1.92l0,1.72l-5.97,0l0,0.86c0,0.75 0.18,1.3 0.54,1.7c0.37,0.38 0.91,0.58 1.6,0.58c0.58,0 1.05,-0.1 1.4,-0.3c0.35,-0.21 0.57,-0.52 0.66,-0.93l1.72,0a2.72,2.72 0 0 1 -1.23,1.94c-0.69,0.48 -1.54,0.72 -2.56,0.72l0,0.01zm21.01,0a4.4,4.4 0 0 1 -2.03,-0.45a3.46,3.46 0 0 1 -1.8,-3.26l0,-2.59c0,-0.73 0.16,-1.37 0.47,-1.92c0.32,-0.56 0.76,-1 1.33,-1.3a4.24,4.24 0 0 1 2.03,-0.47c0.78,0 1.45,0.16 2.02,0.47c0.58,0.3 1.03,0.74 1.35,1.3c0.31,0.55 0.47,1.19 0.47,1.92l0,1.72l-5.97,0l0,0.86c0,0.75 0.18,1.3 0.54,1.7c0.37,0.38 0.91,0.58 1.6,0.58c0.58,0 1.05,-0.1 1.4,-0.3c0.16,-0.1 0.3,-0.22 0.4,-0.35c0.13,-0.17 0.22,-0.36 0.26,-0.58l1.72,0a2.72,2.72 0 0 1 -1.23,1.94c-0.69,0.48 -1.54,0.72 -2.56,0.72l0,0.01zm6.81,2.98l0,-12.8l1.72,0l0,1.82l0.02,0c0.08,-0.42 0.24,-0.78 0.47,-1.08c0.1,-0.14 0.24,-0.27 0.4,-0.38a2.83,2.83 0 0 1 1.75,-0.52c0.96,0 1.73,0.33 2.32,0.98c0.58,0.64 0.87,1.52 0.87,2.63l0,2.75c0,1.12 -0.29,2 -0.87,2.66c-0.58,0.64 -1.35,0.96 -2.32,0.96a2.87,2.87 0 0 1 -1.75,-0.52a2.35,2.35 0 0 1 -0.87,-1.47l-0.04,0l0.04,2.19l0,2.78l-1.74,0zm13.31,-2.98a3.46,3.46 0 0 1 -2.4,-0.77a2.74,2.74 0 0 1 -0.86,-2.12c0,-0.91 0.3,-1.62 0.9,-2.13a3.65,3.65 0 0 1 2.46,-0.8l2.81,0l0,-0.9c0,-0.56 -0.18,-1 -0.53,-1.3a2.03,2.03 0 0 0 -1.42,-0.47a2.4,2.4 0 0 0 -1.38,0.37a1.49,1.49 0 0 0 -0.67,0.92l-1.7,0c0.05,-0.56 0.24,-1.04 0.58,-1.45a3.4,3.4 0 0 1 1.33,-0.98a4.78,4.78 0 0 1 1.86,-0.35a3.94,3.94 0 0 1 2.66,0.87c0.67,0.58 1,1.35 1,2.33l0,6.6l-1.7,0l0,-1.78a2,2 0 0 1 -0.93,1.44c-0.52,0.35 -1.19,0.52 -2,0.52l-0.01,0zm53.5,0a4,4 0 0 1 -2.85,-0.98a3.55,3.55 0 0 1 -1.07,-2.73l0,-2.59c0,-1.14 0.36,-2.04 1.07,-2.7c0.71,-0.66 1.66,-1 2.84,-1c1.13,0 2.04,0.3 2.73,0.92c0.7,0.6 1.05,1.4 1.1,2.45l-1.73,0a1.87,1.87 0 0 0 -0.6,-1.35a2.23,2.23 0 0 0 -1.5,-0.5c-0.67,0 -1.2,0.2 -1.6,0.59c-0.38,0.37 -0.58,0.9 -0.58,1.59l0,2.58c0,0.7 0.2,1.24 0.58,1.6c0.4,0.38 0.93,0.57 1.6,0.57c0.62,0 1.11,-0.16 1.5,-0.47c0.36,-0.32 0.56,-0.77 0.6,-1.35l1.72,0a3.3,3.3 0 0 1 -1.09,2.47c-0.69,0.59 -1.6,0.89 -2.73,0.89l0.01,0.01zm27.73,2.98l0,-12.8l1.72,0l0,1.82l0.02,0c0.11,-0.62 0.4,-1.11 0.86,-1.46a2.84,2.84 0 0 1 1.77,-0.52c0.95,0 1.72,0.33 2.31,0.98l0.12,0.14c0.5,0.62 0.75,1.45 0.75,2.49l0,2.75c0,1.04 -0.25,1.89 -0.76,2.53l-0.1,0.13c-0.58,0.64 -1.35,0.96 -2.32,0.96c-0.7,0 -1.29,-0.17 -1.76,-0.52a2.35,2.35 0 0 1 -0.87,-1.47l-0.04,0l0.04,2.19l0,2.78l-1.74,0zm-6.8,-3.01a3.94,3.94 0 0 1 -2.8,-0.98a3.6,3.6 0 0 1 -1.04,-2.72l0,-2.52c0,-1.14 0.34,-2.04 1.03,-2.7a3.9,3.9 0 0 1 2.81,-1c1.18,0 2.11,0.34 2.8,1a3.53,3.53 0 0 1 1.03,2.68l0,2.54a3.6,3.6 0 0 1 -1.03,2.72c-0.69,0.65 -1.62,0.98 -2.8,0.98zm63.02,0a4.05,4.05 0 0 1 -2.8,-0.98a3.6,3.6 0 0 1 -1.03,-2.72l0,-2.52a3.56,3.56 0 0 1 1.36,-2.98a4.06,4.06 0 0 1 2.47,-0.72a3.9,3.9 0 0 1 2.81,1c0.16,0.15 0.3,0.31 0.42,0.49c0.4,0.58 0.61,1.31 0.61,2.19l0,2.54a3.81,3.81 0 0 1 -1.03,2.72c-0.69,0.65 -1.63,0.98 -2.8,0.98l-0.01,0zm21.01,0a3.91,3.91 0 0 1 -2.8,-0.98a3.6,3.6 0 0 1 -1.03,-2.72l0,-2.52c0,-1.14 0.34,-2.04 1.03,-2.7c0.7,-0.66 1.62,-1 2.8,-1a3.9,3.9 0 0 1 2.81,1a3.56,3.56 0 0 1 1.03,2.68l0,2.54c0,1.15 -0.35,2.05 -1.03,2.72c-0.69,0.65 -1.63,0.98 -2.8,0.98l-0.01,0zm-193.83,2.3l0,-3.93l0.76,0c0.18,-0.2 0.38,-0.58 0.6,-1.14c0.21,-0.57 0.34,-1.3 0.36,-2.17l0.1,-4.84l6.4,0l0,8.15l1.21,0l0,3.94l-1.56,0l0,-2.45l-6.3,0l0,2.45l-1.57,0l0,-0.01zm49.9,0l0,-2.44l-6.85,0l0,-9.64l1.75,0l0,8.08l3.61,0l0,-8.08l1.73,0l0,8.08l1.32,0l0,4l-1.56,0zm3.66,-2.44l0,-9.64l1.63,0l0,5.12a30.72,30.72 0 0 1 -0.21,3.08l3.82,-8.2l2.2,0l0,9.64l-1.64,0l0,-5.13l0.03,-1.06l0.07,-1.08l0.11,-0.9l-3.82,8.17l-2.19,0zm10.07,0l2.38,-3.66a2.9,2.9 0 0 1 -1.63,-1.04c-0.4,-0.52 -0.6,-1.14 -0.6,-1.85c0,-0.95 0.32,-1.7 0.95,-2.25a3.86,3.86 0 0 1 2.63,-0.84l4.13,0l0,9.64l-1.73,0l0,-3.54l-1.98,0l-2.16,3.54l-1.99,0zm31.95,0l0,-9.64l7.43,0l0,9.64l-1.74,0l0,-8.06l-3.96,0l0,8.06l-1.73,0zm34.37,0l0,-8.1l-3.46,0l0,-1.53l8.64,0l0,1.55l-3.45,0l0,8.09l-1.73,0l0,-0.01zm7.65,0l0,-9.64l1.62,0l0,5.12a20.6,20.6 0 0 1 -0.12,2.19l-0.09,0.89l3.82,-8.2l2.2,0l0,9.64l-1.64,0l0,-5.13c0,-0.33 0.02,-0.68 0.04,-1.06l0.07,-1.08l0.1,-0.9l-3.82,8.17l-2.18,0zm10.5,0l0,-9.64l4.2,0c0.97,0 1.74,0.23 2.32,0.67c0.58,0.44 0.87,1.04 0.87,1.79c0,0.58 -0.18,1.05 -0.56,1.4c-0.37,0.38 -0.88,0.57 -1.52,0.59l0,0.07a2.49,2.49 0 0 1 2.07,1.07c0.24,0.37 0.35,0.81 0.35,1.33c0,0.83 -0.3,1.49 -0.92,1.98a3.8,3.8 0 0 1 -2.47,0.74l-4.34,0zm10.5,0l0,-9.64l1.74,0l0,3.9l3.96,0l0,-3.89l1.73,0l0,9.64l-1.73,0l0,-4.15l-3.96,0l0,4.15l-1.74,0l0,-0.01zm21.71,0l0,-9.64l7,0l0,1.6l-5.26,0l0,8.04l-1.74,0zm-188.2,-6.12l0,0.48l4.3,0l0,-0.48c0,-0.73 -0.2,-1.3 -0.57,-1.68l-0.15,-0.14c-0.35,-0.3 -0.83,-0.45 -1.45,-0.45c-0.7,0 -1.23,0.2 -1.59,0.59c-0.36,0.38 -0.54,0.94 -0.54,1.68zm21.01,0l0,0.48l4.3,0l0,-0.48c0,-0.73 -0.2,-1.3 -0.57,-1.68c-0.36,-0.4 -0.9,-0.6 -1.6,-0.6a2.15,2.15 0 0 0 -1.59,0.6c-0.36,0.38 -0.54,0.94 -0.54,1.68zm12.71,4.79c0.64,0 1.14,-0.2 1.51,-0.56c0.36,-0.4 0.54,-0.94 0.54,-1.65l0,-2.59c0,-0.7 -0.18,-1.23 -0.54,-1.61a2.1,2.1 0 0 0 -1.51,-0.57a1.96,1.96 0 0 0 -1.53,0.62c-0.33,0.38 -0.5,0.9 -0.5,1.58l0,2.56c0,0.7 0.18,1.24 0.54,1.63c0.36,0.38 0.86,0.58 1.5,0.58l-0.01,0.01zm94.54,0a2.04,2.04 0 0 0 1.53,-0.6c0.35,-0.38 0.52,-0.92 0.52,-1.61l0,-2.59a2.24,2.24 0 0 0 -0.54,-1.61a2,2 0 0 0 -1.5,-0.57c-0.64,0 -1.14,0.19 -1.5,0.57a2.3,2.3 0 0 0 -0.54,1.63l0,2.56c0,0.7 0.18,1.24 0.54,1.63c0.36,0.38 0.86,0.58 1.5,0.58l-0.01,0.01zm-137.33,-0.04l0,-6.9c-0.53,0 -0.97,0.13 -1.3,0.39c-0.08,0.05 -0.15,0.11 -0.22,0.19a0.52,0.52 0 0 0 -0.09,0.09c-0.3,0.36 -0.46,0.86 -0.46,1.48l0,2.56c0,0.69 0.18,1.23 0.55,1.6c0.36,0.4 0.87,0.59 1.52,0.59zm1.4,0a2,2 0 0 0 1.6,-0.65c0.31,-0.38 0.47,-0.9 0.47,-1.54l0,-2.57a2.24,2.24 0 0 0 -0.54,-1.57a2,2 0 0 0 -1.53,-0.58l0,6.9l0,0.01zm125.36,-0.02c0.65,0 1.16,-0.18 1.54,-0.54c0.37,-0.37 0.56,-0.92 0.56,-1.63l0,-2.52c0,-0.71 -0.19,-1.25 -0.56,-1.61a2.07,2.07 0 0 0 -1.54,-0.56c-0.66,0 -1.17,0.18 -1.55,0.56c-0.37,0.36 -0.56,0.9 -0.56,1.6l0,2.53c0,0.7 0.2,1.26 0.56,1.63c0.38,0.36 0.9,0.54 1.55,0.54zm63.02,0c0.66,0 1.17,-0.18 1.54,-0.54c0.38,-0.37 0.57,-0.92 0.57,-1.63l0,-2.52c0,-0.71 -0.19,-1.25 -0.57,-1.61c-0.37,-0.38 -0.88,-0.56 -1.54,-0.56c-0.65,0 -1.16,0.18 -1.54,0.56c-0.37,0.36 -0.56,0.9 -0.56,1.6l0,2.53c0,0.7 0.2,1.26 0.56,1.63c0.38,0.36 0.9,0.54 1.54,0.54zm21.01,0c0.66,0 1.17,-0.18 1.54,-0.54c0.38,-0.37 0.56,-0.92 0.56,-1.63l0,-2.52c0,-0.71 -0.18,-1.25 -0.56,-1.61c-0.37,-0.38 -0.88,-0.56 -1.54,-0.56a2.05,2.05 0 0 0 -1.59,0.6c-0.34,0.37 -0.5,0.89 -0.5,1.57l0,2.52c0,0.7 0.18,1.26 0.55,1.63c0.37,0.36 0.9,0.54 1.54,0.54zm-44.03,-4.24l2.47,0c0.48,0 0.85,-0.11 1.12,-0.33c0.27,-0.23 0.4,-0.55 0.4,-0.96c0,-0.4 -0.13,-0.71 -0.4,-0.93a1.72,1.72 0 0 0 -1.12,-0.33l-2.47,0l0,2.55zm-82.43,0.64l2.4,0l0,-3.16l-2.4,0c-0.56,0 -1,0.15 -1.34,0.44c-0.33,0.28 -0.5,0.67 -0.5,1.16c0,0.48 0.17,0.85 0.5,1.14c0.33,0.28 0.78,0.42 1.34,0.42zm-64.8,3.5l3.95,0l0,-6.62l-3.07,0l-0.07,3.34a7.9,7.9 0 0 1 -0.3,2.18c-0.19,0.56 -0.36,0.92 -0.52,1.1l0.01,0zm33.27,0.3c0.7,0 1.28,-0.16 1.74,-0.51c0.46,-0.36 0.7,-0.82 0.7,-1.4l0,-1.3l-2.77,0a1.77,1.77 0 0 0 -1.23,0.42a1.5,1.5 0 0 0 -0.43,1.14c0,0.53 0.17,0.93 0.52,1.23c0.35,0.29 0.84,0.43 1.47,0.43l0,-0.01zm113.96,-0.26l2.61,0c0.54,0 0.95,-0.12 1.24,-0.36c0.31,-0.26 0.46,-0.61 0.46,-1.06c0,-0.44 -0.15,-0.78 -0.46,-1.03c-0.29,-0.26 -0.7,-0.38 -1.24,-0.38l-2.6,0l0,2.83l-0.01,0zm8.8,19.79l0,-12.8l4.16,0c0.81,0 1.52,0.17 2.12,0.49a3.4,3.4 0 0 1 1.38,1.33c0.33,0.56 0.5,1.23 0.5,2a4,4 0 0 1 -0.5,2.03c-0.33,0.56 -0.79,0.99 -1.4,1.3c-0.6,0.33 -1.3,0.48 -2.1,0.48l-2.42,0l0,5.17l-1.74,0zm1.74,-6.71l2.42,0c0.67,0 1.21,-0.2 1.61,-0.61c0.4,-0.42 0.6,-0.97 0.6,-1.65c0,-0.7 -0.2,-1.24 -0.6,-1.64c-0.4,-0.42 -0.94,-0.64 -1.6,-0.64l-2.43,0l0,4.54zm-169.79,9.84l0,-12.77l1.72,0l0,1.8l0.01,0a2.32,2.32 0 0 1 0.92,-1.5a2.92,2.92 0 0 1 1.71,-0.48c0.96,0 1.73,0.33 2.31,0.98c0.6,0.64 0.88,1.52 0.88,2.63l0,2.75c0,1.12 -0.29,2 -0.88,2.66c-0.18,0.2 -0.4,0.38 -0.62,0.53c-0.47,0.29 -1.03,0.44 -1.69,0.44a2.87,2.87 0 0 1 -1.75,-0.53a2.34,2.34 0 0 1 -0.88,-1.47l-0.03,0l0.03,2.19l0,2.78l-1.73,0l0,-0.01zm31.51,0l0,-12.77l1.72,0l0,1.8l0.02,0c0.11,-0.62 0.4,-1.1 0.86,-1.45a2.83,2.83 0 0 1 1.76,-0.53c0.96,0 1.73,0.33 2.32,0.98c0.58,0.64 0.87,1.52 0.87,2.63l0,2.75c0,1.12 -0.29,2 -0.87,2.66c-0.58,0.64 -1.35,0.97 -2.32,0.97a2.87,2.87 0 0 1 -1.75,-0.53a2.32,2.32 0 0 1 -0.87,-1.47l-0.04,0l0.04,2.19l0,2.78l-1.74,0l0,-0.01zm13.31,-2.97a3.47,3.47 0 0 1 -2.4,-0.78a2.73,2.73 0 0 1 -0.86,-2.11c0,-0.92 0.3,-1.63 0.9,-2.14a3.65,3.65 0 0 1 2.46,-0.8l2.81,0l0,-0.9c0,-0.56 -0.18,-1 -0.53,-1.3a2.03,2.03 0 0 0 -1.42,-0.47a2.4,2.4 0 0 0 -1.38,0.37c-0.36,0.23 -0.58,0.54 -0.67,0.93l-1.7,0a2.6,2.6 0 0 1 0.58,-1.46a3.5,3.5 0 0 1 1.33,-0.98a4.78,4.78 0 0 1 1.86,-0.35c1.12,0 2.01,0.29 2.66,0.88c0.67,0.57 1,1.35 1,2.33l0,6.6l-1.7,0l0,-1.8a2,2 0 0 1 -0.93,1.45c-0.52,0.35 -1.19,0.53 -2,0.53l-0.01,0zm39.22,2.97l0,-12.77l1.71,0l0,1.8l0.02,0a2.28,2.28 0 0 1 0.92,-1.5a2.92,2.92 0 0 1 1.71,-0.48c0.96,0 1.73,0.33 2.31,0.98c0.58,0.64 0.88,1.52 0.88,2.63l0,2.75c0,1.12 -0.3,2 -0.88,2.66c-0.57,0.64 -1.34,0.97 -2.3,0.97c-0.7,0 -1.3,-0.18 -1.76,-0.53a2.34,2.34 0 0 1 -0.88,-1.47l-0.04,0l0.04,2.19l0,2.78l-1.73,0l0,-0.01zm34.31,-2.97a3.5,3.5 0 0 1 -2.4,-0.78a2.73,2.73 0 0 1 -0.86,-2.11c0,-0.92 0.3,-1.63 0.9,-2.14c0.6,-0.53 1.43,-0.8 2.47,-0.8l2.8,0l0,-0.9c0,-0.56 -0.18,-1 -0.53,-1.3a2,2 0 0 0 -1.4,-0.47c-0.56,0 -1.03,0.12 -1.4,0.37c-0.36,0.23 -0.58,0.54 -0.66,0.93l-1.7,0c0.04,-0.56 0.23,-1.05 0.57,-1.46c0.34,-0.42 0.8,-0.74 1.34,-0.98a4.7,4.7 0 0 1 1.85,-0.35c1.12,0 2.01,0.29 2.67,0.88c0.66,0.57 1,1.35 1,2.33l0,6.6l-1.7,0l0,-1.8l-0.02,0a1.99,1.99 0 0 1 -0.9,1.45c-0.54,0.35 -1.2,0.53 -2.03,0.53zm74.5,0a4.01,4.01 0 0 1 -2.84,-1a3.55,3.55 0 0 1 -1.07,-2.72l0,-2.57a3.48,3.48 0 0 1 1.45,-3.01a4.17,4.17 0 0 1 2.46,-0.7c1.13,0 2.04,0.3 2.73,0.92c0.7,0.6 1.05,1.4 1.1,2.45l-1.73,0a1.79,1.79 0 0 0 -0.6,-1.34a2.18,2.18 0 0 0 -1.5,-0.5c-0.67,0 -1.2,0.2 -1.6,0.58c-0.38,0.38 -0.57,0.9 -0.57,1.6l0,2.57c0,0.7 0.2,1.24 0.57,1.6c0.4,0.39 0.93,0.57 1.6,0.57c0.62,0 1.11,-0.15 1.5,-0.47c0.36,-0.31 0.57,-0.76 0.6,-1.35l1.72,0a3.3,3.3 0 0 1 -1.09,2.47c-0.69,0.6 -1.6,0.9 -2.73,0.9zm10.5,0a4.03,4.03 0 0 1 -2.84,-1a3.54,3.54 0 0 1 -1.06,-2.72l0,-2.57c0,-1.15 0.35,-2.05 1.06,-2.7c0.72,-0.67 1.66,-1 2.84,-1a4,4 0 0 1 2.74,0.9c0.68,0.6 1.05,1.42 1.08,2.46l-1.72,0a1.79,1.79 0 0 0 -0.6,-1.34a2.16,2.16 0 0 0 -1.5,-0.5c-0.66,0 -1.19,0.2 -1.59,0.58c-0.39,0.38 -0.58,0.9 -0.58,1.6l0,2.57c0,0.7 0.2,1.24 0.58,1.6c0.4,0.39 0.93,0.57 1.6,0.57a2.2,2.2 0 0 0 1.48,-0.47c0.37,-0.31 0.58,-0.76 0.61,-1.35l1.72,0a3.3,3.3 0 0 1 -1.08,2.47c-0.69,0.6 -1.6,0.9 -2.74,0.9zm-189.15,-0.04a3.91,3.91 0 0 1 -2.8,-0.98a3.6,3.6 0 0 1 -1.04,-2.72l0,-2.52c0,-1.14 0.35,-2.04 1.04,-2.7a3.88,3.88 0 0 1 2.8,-1c1.18,0 2.11,0.34 2.8,1a3.53,3.53 0 0 1 1.04,2.68l0,2.54a3.6,3.6 0 0 1 -1.04,2.72c-0.69,0.65 -1.62,0.98 -2.8,0.98zm84.04,0a3.94,3.94 0 0 1 -2.8,-0.98a3.6,3.6 0 0 1 -1.04,-2.72l0,-2.52c0,-1.14 0.34,-2.04 1.03,-2.7a3.9,3.9 0 0 1 2.81,-1c1.18,0 2.11,0.34 2.8,1a3.53,3.53 0 0 1 1.03,2.68l0,2.54a3.6,3.6 0 0 1 -1.03,2.72c-0.69,0.65 -1.62,0.98 -2.8,0.98zm84.03,0a3.91,3.91 0 0 1 -2.8,-0.98a3.6,3.6 0 0 1 -1.03,-2.72l0,-2.52c0,-1.14 0.34,-2.04 1.03,-2.7a3.88,3.88 0 0 1 2.8,-1a3.9,3.9 0 0 1 2.81,1c0.16,0.15 0.3,0.31 0.42,0.49c0.4,0.59 0.61,1.32 0.61,2.19l0,2.54a3.6,3.6 0 0 1 -1.03,2.72c-0.69,0.65 -1.63,0.98 -2.8,0.98l-0.01,0zm-192.79,-0.14l0,-9.63l7.42,0l0,9.63l-1.73,0l0,-8.05l-3.96,0l0,8.06l-1.73,0l0,-0.01zm32.21,0l0,-9.63l7,0l0,1.59l-5.26,0l0,8.04l-1.74,0zm30.52,0l0,-9.63l2.26,0l1.24,3.67c0.13,0.39 0.24,0.76 0.33,1.13l0.23,0.82a22.28,22.28 0 0 1 0.53,-1.96l1.17,-3.66l2.26,0l0,9.63l-1.65,0l0,-1.52l0.02,-1.72l0.07,-2l0.1,-1.91c0.01,-0.6 0.03,-1.12 0.06,-1.56l-1.74,5.84l-1.7,0l-1.76,-5.75l0.07,1.46l0.07,1.85a130.8,130.8 0 0 1 0.08,3.79l0,1.52l-1.64,0zm10.5,0l0,-9.63l2.26,0l1.24,3.67c0.13,0.39 0.24,0.76 0.34,1.13l0.23,0.82a14.29,14.29 0 0 1 0.52,-1.96l1.17,-3.66l2.26,0l0,9.63l-1.64,0l0,-1.52c0,-0.51 0,-1.08 0.02,-1.72l0.07,-2l0.08,-1.91l0.07,-1.56l-1.73,5.84l-1.7,0l-1.77,-5.75l0.07,1.46l0.07,1.85a130.8,130.8 0 0 1 0.1,3.79l0,1.52l-1.66,0zm10.8,0l0,-9.63l1.63,0l0,5.1a21.27,21.27 0 0 1 -0.12,2.2l-0.09,0.89l3.82,-8.2l2.2,0l0,9.64l-1.64,0l0,-5.13a30.13,30.13 0 0 1 0.11,-2.14l0.1,-0.9l-3.82,8.17l-2.19,0zm31.52,0l0,-9.63l4.18,0c0.98,0 1.76,0.22 2.33,0.66c0.6,0.45 0.88,1.04 0.88,1.79a1.9,1.9 0 0 1 -0.56,1.42c-0.37,0.36 -0.88,0.55 -1.53,0.58l0,0.07a2.5,2.5 0 0 1 1.76,0.68c0.12,0.12 0.23,0.25 0.31,0.39c0.24,0.36 0.35,0.8 0.35,1.33c0,0.82 -0.3,1.48 -0.9,1.97c-0.62,0.49 -1.44,0.74 -2.48,0.74l-4.34,0zm21.01,0l0,-9.63l1.73,0l0,3.9l3.96,0l0,-3.9l1.73,0l0,9.63l-1.73,0l0,-4.15l-3.96,0l0,4.15l-1.73,0zm10.5,0l0,-9.63l1.63,0l0,5.1c0,0.35 0,0.7 -0.04,1.1a37.9,37.9 0 0 1 -0.17,1.99l3.82,-8.2l2.2,0l0,9.64l-1.64,0l0,-5.13l0.03,-1.05l0.07,-1.1l0.11,-0.88l-3.82,8.16l-2.19,0zm10.07,0l2.38,-3.66a2.94,2.94 0 0 1 -1.63,-1.03a3,3 0 0 1 -0.6,-1.86c0,-0.95 0.32,-1.7 0.95,-2.24a3.86,3.86 0 0 1 2.63,-0.84l4.13,0l0,9.63l-1.73,0l0,-3.54l-1.98,0l-2.16,3.54l-1.99,0zm63.46,0l0,-9.63l1.63,0l0,5.1c0,0.35 0,0.7 -0.03,1.1l-0.09,1.1l-0.09,0.89l3.82,-8.2l2.2,0l0,9.64l-1.64,0l0,-5.13a30.13,30.13 0 0 1 0.11,-2.14l0.1,-0.9l-3.82,8.17l-2.19,0zm10.51,0l0,-9.63l1.63,0l0,5.1c0,0.35 -0.02,0.7 -0.04,1.1c-0.02,0.37 -0.05,0.74 -0.09,1.1l-0.08,0.89l3.82,-8.2l2.2,0l0,9.64l-1.64,0l0,-5.13l0.03,-1.05l0.07,-1.1l0.11,-0.88l-3.82,8.16l-2.19,0zm-216.8,-1.33a2,2 0 0 0 1.5,-0.56c0.35,-0.4 0.54,-0.94 0.54,-1.65l0,-2.57c0,-0.68 -0.17,-1.2 -0.5,-1.57l-0.05,-0.04a1.97,1.97 0 0 0 -0.24,-0.22a2.1,2.1 0 0 0 -1.26,-0.36c-0.64,0 -1.13,0.19 -1.49,0.58c-0.37,0.38 -0.55,0.92 -0.55,1.62l0,2.56c0,0.7 0.18,1.25 0.55,1.63c0.36,0.39 0.85,0.58 1.5,0.58zm31.5,0c0.64,0 1.14,-0.2 1.51,-0.56c0.36,-0.4 0.54,-0.94 0.54,-1.65l0,-2.57c0,-0.7 -0.18,-1.24 -0.54,-1.61a2.64,2.64 0 0 0 -0.25,-0.22a2.1,2.1 0 0 0 -1.26,-0.36c-0.63,0 -1.13,0.19 -1.49,0.58c-0.36,0.38 -0.54,0.92 -0.54,1.62l0,2.56c0,0.7 0.18,1.25 0.54,1.63c0.36,0.39 0.86,0.58 1.5,0.58l-0.01,0zm52.52,0c0.64,0 1.15,-0.2 1.51,-0.56c0.36,-0.4 0.54,-0.94 0.54,-1.65l0,-2.57c0,-0.7 -0.18,-1.24 -0.54,-1.61a1.96,1.96 0 0 0 -1.5,-0.58c-0.64,0 -1.14,0.19 -1.5,0.58c-0.36,0.38 -0.54,0.92 -0.54,1.62l0,2.56c0,0.7 0.18,1.25 0.54,1.63c0.36,0.39 0.86,0.58 1.5,0.58l-0.01,0zm-73.6,-0.05c0.65,0 1.17,-0.18 1.54,-0.55c0.37,-0.37 0.56,-0.91 0.56,-1.63l0,-2.52c0,-0.71 -0.19,-1.25 -0.56,-1.61a2.1,2.1 0 0 0 -1.54,-0.56a2.1,2.1 0 0 0 -1.54,0.56c-0.38,0.36 -0.56,0.9 -0.56,1.6l0,2.53c0,0.72 0.18,1.26 0.56,1.63c0.37,0.37 0.9,0.55 1.54,0.55zm84.04,0a2.1,2.1 0 0 0 1.54,-0.55c0.37,-0.37 0.56,-0.91 0.56,-1.63l0,-2.52c0,-0.71 -0.19,-1.25 -0.56,-1.61a2.11,2.11 0 0 0 -1.54,-0.56c-0.66,0 -1.17,0.19 -1.55,0.56c-0.37,0.36 -0.56,0.9 -0.56,1.6l0,2.53c0,0.72 0.2,1.26 0.56,1.63c0.38,0.37 0.9,0.55 1.55,0.55zm84.03,0c0.66,0 1.17,-0.18 1.54,-0.55c0.38,-0.37 0.57,-0.91 0.57,-1.63l0,-2.52c0,-0.71 -0.19,-1.25 -0.57,-1.61a2.08,2.08 0 0 0 -1.54,-0.56c-0.65,0 -1.16,0.19 -1.54,0.56c-0.37,0.36 -0.56,0.9 -0.56,1.6l0,2.53c0,0.72 0.2,1.26 0.56,1.63c0.38,0.37 0.9,0.55 1.54,0.55zm-75.54,-4.24l2.47,0c0.48,0 0.85,-0.11 1.12,-0.34c0.27,-0.23 0.4,-0.55 0.4,-0.96c0,-0.4 -0.13,-0.71 -0.4,-0.93a1.74,1.74 0 0 0 -1.12,-0.33l-2.47,0l0,2.56zm43.63,0.63l2.38,0l0,-3.15l-2.38,0a2,2 0 0 0 -1.35,0.43c-0.33,0.28 -0.49,0.67 -0.49,1.16c0,0.48 0.16,0.86 0.5,1.14c0.33,0.28 0.78,0.42 1.34,0.42zm-105.07,3.82c0.7,0 1.28,-0.18 1.74,-0.53c0.46,-0.36 0.7,-0.82 0.7,-1.38l0,-1.32l-2.77,0c-0.5,0 -0.92,0.14 -1.23,0.42a1.5,1.5 0 0 0 -0.43,1.14c0,0.53 0.17,0.94 0.52,1.23c0.35,0.29 0.84,0.44 1.47,0.44zm73.54,0c0.7,0 1.27,-0.18 1.73,-0.53c0.27,-0.21 0.46,-0.45 0.57,-0.71c0.09,-0.21 0.13,-0.43 0.13,-0.67l0,-1.32l-2.77,0c-0.5,0 -0.92,0.14 -1.22,0.42c-0.3,0.28 -0.44,0.66 -0.44,1.14c0,0.53 0.17,0.94 0.52,1.23c0.35,0.29 0.84,0.44 1.48,0.44zm-12.1,-0.28l2.61,0c0.53,0 0.95,-0.13 1.24,-0.37c0.3,-0.26 0.46,-0.61 0.46,-1.05a1.32,1.32 0 0 0 -0.46,-1.04c-0.3,-0.26 -0.7,-0.38 -1.24,-0.38l-2.6,0l0,2.84l-0.01,0z" fill="#1B1C21" fill-rule="evenodd"/>
   </g>
   <defs>
    <clipPath id="svg_4">
     <path d="m0.42,0l390.35,0l0,47.54l-390.35,0l0,-47.54z" fill="#fff"/>
    </clipPath>
    <clipPath id="svg_3">
     <path d="m0.42,0l140.17,0l0,47.54l-140.17,0l0,-47.54z" fill="#fff"/>
    </clipPath>
   </defs>
  </symbol>
 </defs>
 <g class="layer">
  <title>Layer 1</title>
  <use id="svg_6" transform="matrix(0.957303 0 0 0.957303 0.170308 9.09403)" x="2.87" xlink:href="#svg_5" y="-7.87"/>
 </g>
</svg>