<svg width="345.000000" height="116.000000" viewBox="0 0 345 116" fill="none" xmlns="http://www.w3.org/2000/svg" xmlns:xlink="http://www.w3.org/1999/xlink">
	<desc>
			Created with Pixso.
	</desc>
	<defs/>
	<path id="Vector" d="M36.42 95.22C35.54 94.59 34.88 93.7 34.54 92.67C34.2 91.65 34.2 90.54 34.53 89.51L35.61 85.09C35.81 84.32 36.16 83.59 36.66 82.96C37.15 82.33 37.78 81.8 38.49 81.42L42.03 79.58C44.22 78.46 45.97 76.64 47 74.43C48.02 72.21 48.28 69.72 47.72 67.35L47.67 67.13C47.01 64.47 45.38 62.15 43.08 60.62C40.79 59.09 38 58.46 35.27 58.86L31.3 59.42C30.5 59.54 29.68 59.48 28.89 59.26C28.11 59.04 27.39 58.65 26.76 58.13L23.26 55.19C22.39 54.55 21.75 53.65 21.41 52.63C21.08 51.61 21.08 50.51 21.41 49.48C22.15 47.21 22.13 44.76 21.34 42.51C20.56 40.25 19.05 38.31 17.05 36.98C15.05 35.64 12.67 34.99 10.26 35.11C7.85 35.24 5.55 36.14 3.71 37.68C1.86 39.21 0.57 41.3 0.03 43.63C-0.51 45.95 -0.27 48.39 0.72 50.57C1.7 52.74 3.37 54.55 5.48 55.7C7.59 56.85 10.03 57.3 12.41 56.96C12.8 56.9 13.18 56.82 13.56 56.73L14.59 56.54C15.45 56.37 16.33 56.39 17.17 56.61C18.02 56.83 18.8 57.24 19.46 57.8L24.22 61.88C24.95 62.51 25.51 63.31 25.84 64.21C26.17 65.11 26.27 66.08 26.13 67.02L26.01 67.74L25.91 68.37L25.91 68.43C25.76 69.73 25.84 71.06 26.16 72.34C26.16 72.41 26.16 72.49 26.22 72.55L26.22 72.63C26.67 74.37 27.56 75.97 28.79 77.28C28.94 77.44 29.09 77.58 29.24 77.73L29.76 78.24C30.45 78.93 30.95 79.78 31.21 80.71C31.47 81.64 31.5 82.62 31.27 83.56L29.82 89.6C29.62 90.44 29.23 91.23 28.68 91.9C28.12 92.56 27.42 93.1 26.63 93.45L25.74 93.86C25.38 94 25.02 94.16 24.68 94.34C23.06 95.19 21.67 96.42 20.66 97.93C18.97 100.32 18.32 103.27 18.83 106.14C19.35 109 21 111.55 23.41 113.21C25.82 114.88 28.8 115.53 31.7 115.02C34.6 114.51 37.17 112.88 38.85 110.49C39.85 109.14 40.52 107.58 40.81 105.93C40.88 105.56 40.93 105.18 40.96 104.81L41.08 103.84C41.01 102.15 40.56 100.5 39.75 99C38.94 97.51 37.81 96.22 36.42 95.22Z" fill="#C8C9CA" fill-opacity="1.000000" fill-rule="nonzero"/>
	<path id="Vector" d="M121.18 42.71C120.59 40.94 119.56 39.35 118.18 38.08C116.81 36.81 115.12 35.91 113.3 35.46C111.47 35.01 109.56 35.02 107.74 35.51C105.92 35.99 104.26 36.92 102.9 38.21C102.61 38.47 102.34 38.74 102.08 39.03L101.41 39.74C100.82 40.38 100.09 40.87 99.28 41.18C98.47 41.5 97.6 41.63 96.73 41.56L90.47 41.06C89.5 40.98 88.56 40.65 87.75 40.12C86.93 39.58 86.27 38.85 85.82 37.99L85.49 37.35C85.39 37.15 85.3 36.96 85.19 36.78L85.19 36.73C84.54 35.57 83.69 34.55 82.66 33.7L82.5 33.57L82.42 33.5C81.02 32.37 79.36 31.6 77.59 31.25L77.52 31.25L76.89 31.14L76.15 31.08C75.19 30.93 74.28 30.53 73.52 29.93C72.75 29.34 72.15 28.56 71.77 27.67L69.35 21.96C69.01 21.16 68.87 20.3 68.92 19.44C68.97 18.57 69.22 17.74 69.64 16.98L70.13 16.17C70.34 15.84 70.53 15.51 70.7 15.16C71.44 13.67 71.83 12.02 71.83 10.34C71.75 7.48 70.54 4.77 68.47 2.77C66.4 0.78 63.62 -0.34 60.73 -0.34C57.84 -0.34 55.06 0.78 52.99 2.77C50.92 4.77 49.71 7.48 49.63 10.34C49.63 12.02 50.02 13.67 50.76 15.16C50.94 15.51 51.13 15.84 51.33 16.17L51.82 16.98C52.25 17.74 52.49 18.57 52.54 19.44C52.59 20.3 52.45 21.16 52.11 21.96L49.69 27.67C49.32 28.55 48.72 29.33 47.96 29.93C47.2 30.52 46.3 30.92 45.34 31.08L44.62 31.2L43.98 31.3L43.92 31.3C42.61 31.56 41.36 32.05 40.23 32.75L40.07 32.86C40.03 32.87 40 32.89 39.98 32.92C38.45 33.89 37.19 35.22 36.31 36.79L36.31 36.85C36.21 37.03 36.11 37.22 36.02 37.41C31.52 46.97 41.37 52.27 42.61 52.6C44.13 53.05 45.73 53.19 47.31 53.01C48.89 52.83 50.41 52.34 51.78 51.55L51.99 51.42C54.34 49.98 56.06 47.72 56.81 45.09C57.56 42.46 57.29 39.64 56.05 37.2L54.25 33.61C53.89 32.89 53.69 32.1 53.66 31.29C53.63 30.49 53.78 29.68 54.08 28.94L55.8 24.73C56.15 23.71 56.81 22.83 57.69 22.2C58.57 21.58 59.63 21.24 60.71 21.24C61.79 21.24 62.85 21.58 63.73 22.2C64.61 22.83 65.27 23.71 65.62 24.73L67.37 28.94C67.68 29.68 67.82 30.49 67.8 31.29C67.77 32.1 67.57 32.89 67.21 33.61L65.44 37.17C64.34 39.35 64 41.84 64.5 44.24C64.99 46.64 66.28 48.8 68.16 50.39L68.33 50.54C69.77 51.74 71.5 52.56 73.35 52.92C75.2 53.27 77.11 53.16 78.9 52.58C80.54 52.06 82.03 51.16 83.26 49.96L86.13 47.2C86.71 46.63 87.41 46.19 88.17 45.91C88.94 45.62 89.76 45.51 90.58 45.57L95.16 45.91C96.24 45.92 97.29 46.27 98.17 46.9C99.05 47.54 99.7 48.42 100.04 49.44C100.75 51.58 102.52 55.68 109 56.91C110.87 57.17 112.77 56.96 114.53 56.29C116.28 55.63 117.84 54.53 119.05 53.1C120.27 51.67 121.09 49.97 121.45 48.14C121.81 46.31 121.7 44.42 121.12 42.65L121.18 42.71Z" fill="#EC1D35" fill-opacity="1.000000" fill-rule="nonzero"/>
	<path id="Vector" d="M81.12 59.28C79.62 59.8 78.24 60.61 77.07 61.68C75.9 62.74 74.96 64.03 74.32 65.47C74.32 65.55 74.25 65.62 74.23 65.69C73.2 68.23 73.16 71.05 74.11 73.61C75.07 76.18 76.96 78.3 79.41 79.56L82.96 81.4C83.68 81.78 84.31 82.3 84.81 82.94C85.31 83.57 85.66 84.3 85.86 85.09L86.95 89.51C87.28 90.53 87.27 91.64 86.94 92.66C86.6 93.68 85.94 94.57 85.06 95.21C84.18 95.84 83.12 96.18 82.03 96.18C80.94 96.18 79.88 95.85 79 95.22L75.09 92.83C74.39 92.41 73.8 91.86 73.33 91.19C72.88 90.53 72.56 89.78 72.42 88.98L71.74 85.08C71.34 82.67 70.14 80.46 68.32 78.8C66.5 77.15 64.18 76.14 61.72 75.94L61.48 75.94C58.72 75.74 55.99 76.57 53.82 78.26C51.65 79.95 50.19 82.39 49.74 85.09C48.17 94.38 56.62 97.41 59.89 97.82L60.2 97.82C62 97.93 63.81 97.59 65.45 96.84L65.51 96.84L66.09 96.55L66.74 96.23C67.61 95.79 68.58 95.58 69.56 95.62C70.53 95.66 71.48 95.94 72.32 96.44L77.68 99.7C78.43 100.15 79.06 100.76 79.53 101.49C80 102.21 80.3 103.04 80.39 103.89L80.51 104.85C80.54 105.24 80.58 105.62 80.65 106C80.97 107.84 81.76 109.57 82.94 111.02C84.13 112.47 85.67 113.6 87.41 114.31C89.16 115.01 91.06 115.26 92.93 115.03C94.8 114.81 96.58 114.11 98.11 113.02C99.63 111.92 100.85 110.46 101.65 108.77C102.44 107.07 102.79 105.21 102.66 103.35C102.53 101.49 101.92 99.69 100.89 98.13C99.86 96.57 98.44 95.29 96.78 94.42C96.43 94.24 96.08 94.08 95.71 93.93L94.82 93.53C94.03 93.17 93.33 92.64 92.78 91.97C92.23 91.31 91.83 90.52 91.63 89.69L90.18 83.63C89.96 82.69 89.98 81.71 90.25 80.78C90.51 79.85 91.01 79.01 91.69 78.32L92.21 77.8C92.37 77.66 92.52 77.51 92.66 77.36L92.66 77.31C93.57 76.34 94.29 75.22 94.79 74L94.86 73.81L94.86 73.72C95.52 72.05 95.75 70.25 95.54 68.47L95.54 68.4C94.07 57.78 83.49 58.41 81.12 59.28Z" fill="#402FFF" fill-opacity="1.000000" fill-rule="nonzero"/>
	<path id="Vector" d="M174.15 97.16L174.15 88.49L163.44 88.49C161 88.44 158.61 87.76 156.52 86.52C154.21 85.17 150.12 80.71 148.86 78.94C147.62 77.03 147 74.78 147.08 72.51L147.08 41.26C146.99 38.95 147.61 36.68 148.86 34.73C150.12 33.1 154.21 28.61 156.52 27.25C158.61 26.02 161 25.34 163.44 25.29L174.15 25.29L174.15 16.87L185.8 16.87L185.8 25.27L196.26 25.27C198.69 25.34 201.07 26.02 203.18 27.24C205.49 28.59 209.47 33.05 210.84 34.72C212.09 36.66 212.71 38.94 212.62 41.24L212.62 72.49C212.7 74.76 212.08 77.01 210.84 78.93C209.47 80.69 205.49 85.16 203.18 86.5C201.08 87.73 198.69 88.41 196.26 88.47L185.8 88.47L185.8 97.14L174.15 97.16ZM163.69 76.35L174.15 76.35L174.15 37.42L163.8 37.42C162.33 38.54 161.02 39.87 159.92 41.36L159.92 72.51C160.99 73.96 162.26 75.25 163.69 76.35ZM199.82 41.28C198.82 39.78 197.54 38.48 196.05 37.44L185.8 37.44L185.8 76.37L195.94 76.37C197.37 75.23 198.67 73.94 199.82 72.53L199.82 41.28Z" fill="#1B1C21" fill-opacity="1.000000" fill-rule="nonzero"/>
	<path id="Vector" d="M268.09 43.96C266.94 41.28 265 39 262.53 37.43L243.89 37.43C242.31 38.6 240.92 40 239.77 41.58L239.77 72.52C240.82 74.1 242.23 75.41 243.89 76.36L262.73 76.36C264.99 74.74 266.83 72.6 268.09 70.13L280.05 73.05C279.18 75.41 277.98 77.65 276.48 79.68C273.96 83.21 269.06 88.51 262.64 88.51L243.36 88.51C240.92 88.44 238.54 87.76 236.44 86.53C234.24 85.19 230.25 81.04 228.78 79.06C227.6 77.12 226.98 74.9 226.99 72.63L226.99 41.15C226.9 38.87 227.52 36.62 228.78 34.72C230.03 33.09 234.13 28.7 236.54 27.24C238.62 26.05 240.96 25.38 243.36 25.27L262.64 25.27C269.04 25.27 273.87 30.57 276.38 33.99C277.87 36.02 279.07 38.25 279.95 40.6L268.09 43.96Z" fill="#1B1C21" fill-opacity="1.000000" fill-rule="nonzero"/>
	<path id="Vector" d="M332.05 87.98L332.05 37.83L305.54 37.83L305.54 87.98L292.74 87.98L292.74 29.19C292.74 28.27 293.11 27.39 293.77 26.74C294.43 26.09 295.31 25.73 296.24 25.72L341.35 25.72C342.27 25.73 343.16 26.09 343.82 26.74C344.47 27.39 344.84 28.27 344.85 29.19L344.85 88.02L332.05 87.98Z" fill="#1B1C21" fill-opacity="1.000000" fill-rule="nonzero"/>
</svg>
