<svg width="37" height="37" viewBox="0 0 37 37" fill="none" xmlns="http://www.w3.org/2000/svg">
<path fill-rule="evenodd" clip-rule="evenodd" d="M27.3718 3.46875C28.2192 3.46875 28.9062 4.15576 28.9062 5.00322C28.9062 5.38495 28.764 5.75297 28.5072 6.03542L27.6871 6.9375H9.31288L8.49281 6.03542C8.23603 5.75297 8.09375 5.38494 8.09375 5.00322C8.09375 4.15576 8.78076 3.46875 9.62822 3.46875H27.3718ZM12.4663 10.4062L17.3779 15.809C17.597 16.0501 17.9077 16.1875 18.2335 16.1875H18.5H18.7665C19.0923 16.1875 19.403 16.0501 19.6221 15.809L24.5337 10.4062H12.4663ZM13.9735 17.2209L8.09375 10.7531V15.036C8.09375 15.3148 8.19452 15.5843 8.37749 15.7947L11.2644 19.1147C12.0566 18.3481 12.9702 17.7063 13.9735 17.2209ZM9.16601 21.9878L5.75995 18.0708C5.02807 17.2292 4.625 16.1514 4.625 15.036V5.00322V4.625C4.625 2.07068 6.69568 0 9.25 0H9.62822H27.3718H27.75C30.3043 0 32.375 2.07068 32.375 4.625V5.00322V15.036C32.375 16.1514 31.9719 17.2292 31.2401 18.0708L27.834 21.9878C28.5205 23.3763 28.9062 24.94 28.9062 26.5938C28.9062 32.341 24.2472 37 18.5 37C12.7528 37 8.09375 32.341 8.09375 26.5938C8.09375 24.94 8.47953 23.3763 9.16601 21.9878ZM25.7356 19.1147C24.9434 18.3481 24.0298 17.7063 23.0265 17.2209L28.9062 10.7531V15.036C28.9062 15.3148 28.8055 15.5843 28.6225 15.7947L25.7356 19.1147ZM25.4375 26.5938C25.4375 30.4252 22.3315 33.5312 18.5 33.5312C14.6685 33.5312 11.5625 30.4252 11.5625 26.5938C11.5625 22.7623 14.6685 19.6562 18.5 19.6562C22.3315 19.6562 25.4375 22.7623 25.4375 26.5938Z" fill="#656565"/>
</svg>
